<svg xmlns="http://www.w3.org/2000/svg" width="88" height="28" viewBox="0 0 88 28">
    <defs>
        <clipPath id="clip-path">
            <path id="사각형_4339" data-name="사각형 4339" class="cls-1" d="M0 0h87.674v21.498H0z"/>
        </clipPath>
        <style>
            .cls-1{fill:none}.cls-3{fill:#fff}
        </style>
    </defs>
    <g id="TVING_logo_W_신규로고" transform="translate(5 10.307)">
        <path id="area" class="cls-1" transform="translate(-5 -10.307)" d="M0 0h88v28H0z"/>
        <g id="logo" transform="translate(-4 -6.056)">
            <g id="그룹_5598" data-name="그룹 5598" transform="translate(-1 -.999)" style="clip-path:url(#clip-path)">
                <path id="패스_4595" data-name="패스 4595" class="cls-3" d="m178.007 13.365 4.27 8.617h6.635V1.767h-6.352v8.415a.563.563 0 0 1-1.068.25L177.2 1.767h-6.635v20.214h6.371v-8.367a.563.563 0 0 1 1.068-.249" transform="translate(-120.564 -1.249)"/>
                <path id="사각형_4338" data-name="사각형 4338" class="cls-3" transform="translate(40.175 .518)" d="M0 0h6.967v20.214H0z"/>
                <path id="패스_4596" data-name="패스 4596" class="cls-3" d="M240.161 8.712v3.726c0 3.624 1.367 6.244 4.062 7.786 4.3 2.461 10.492.942 13.206-1.065V9.752h-6.292v5.916l-.12.047a3.591 3.591 0 0 1-3.089-.235 3.357 3.357 0 0 1-1.23-2.972V8.339a2.249 2.249 0 0 1 1.683-2.439 2.333 2.333 0 0 1 2.772 1.569l6.095-3.269A8.406 8.406 0 0 0 249.5 0c-.411 0-.811.02-1.192.054a9.624 9.624 0 0 0-5.608 2.231 8.347 8.347 0 0 0-2.534 6.427" transform="translate(-169.754)"/>
                <path id="패스_4597" data-name="패스 4597" class="cls-3" d="M17.287 1.767H0v5.918h5.2v14.3h6.877v-14.3h5.205z" transform="translate(0 -1.249)"/>
                <path id="패스_4598" data-name="패스 4598" class="cls-3" d="M78.571 1.765 74.215 15.3a.563.563 0 0 1-1.1-.172V1.764h-6.606v20.215H79l6.837-20.214z" transform="translate(-47.011 -1.247)"/>
            </g>
        </g>
    </g>
</svg>
