<svg className="hover:filter hover:brightness-150" xmlns="http://www.w3.org/2000/svg" width="36" height="36" viewBox="0 0 36 36" class="css-o3xn5l esx4t664">
	<g transform="translate(2.125 2)">
		<rect width="36" height="36" rx="18" transform="translate(-2.125 -2)" fill="rgba(255,255,255,.13)">
		</rect>
		<path data-name="패\uC2A4 1709" d="M12.9 25.048a13 13 0 0013.089-13.091c0-.2 0-.4-.013-.594a9.311 9.311 0 002.294-2.382 9.232 9.232 0 01-2.64.724 4.627 4.627 0 002.023-2.545 9.277 9.277 0 01-2.922 1.118 4.6 4.6 0 00-7.958 3.145 4.687 4.687 0 00.118 1.05 13.071 13.071 0 01-9.483-4.807 4.6 4.6 0 001.426 6.141 4.567 4.567 0 01-2.085-.576v.059a4.6 4.6 0 003.69 4.51 4.6 4.6 0 01-1.211.162 4.547 4.547 0 01-.865-.085 4.607 4.607 0 004.3 3.2 9.289 9.289 0 01-6.811 1.9 13.011 13.011 0 007.052 2.068" fill="rgba(255,255,255,.31)">
		</path>
	</g>
</svg>
