<svg xmlns="http://www.w3.org/2000/svg" width="40" height="40" viewBox="0 0 40 40">
    <g>
        <path fill="rgba(255,255,255,0)" d="M0 0H40V40H0z" transform="translate(1 4) translate(-1 -4)"/>
        <path fill="#fff" d="M7871.292 18657.705l-7.293-7.293-7.293 7.293a.983.983 0 0 1-.707.295 1 1 0 0 1-.707-1.709l7.293-7.293-7.293-7.293a1 1 0 0 1 1.414-1.414l7.293 7.293 7.293-7.293a1 1 0 0 1 1.414 1.414l-7.293 7.293 7.293 7.293a1 1 0 1 1-1.414 1.414z" transform="translate(1 4) translate(-7845 -18633)"/>
    </g>
</svg>
