<svg width="32" height="32" viewBox="0 0 24 24" fill="none" xmlns="http://www.w3.org/2000/svg">
  <!-- 선형 그라데이션 정의 -->
  <defs>
    <linearGradient id="starGradient" x1="0%" y1="0%" x2="100%" y2="0%">
      <stop offset="50%" style="stop-color:#00a7f6"/>
      <stop offset="50%" style="stop-color:#555"/>
    </linearGradient>
  </defs>

  <!-- 그라데이션을 fill로 사용하는 path -->
  <path fill-rule="evenodd" clip-rule="evenodd" 
        d="M21.9591 9.2598C21.8668 8.9763 21.6301 8.76371 21.3384 8.70226L15.6279 7.49988L12.7235 2.41971C12.575 2.16013 12.299 2 12 2C11.701 2 11.425 2.16013 11.2765 2.41971L8.37208 7.49988L2.66162 8.70226C2.36991 8.76371 2.1332 8.9763 2.04095 9.2598C1.94866 9.5433 2.01483 9.85446 2.2145 10.0758L6.13167 14.4191L5.50612 20.2443C5.47425 20.5413 5.60371 20.8326 5.84546 21.0079C6.08725 21.1833 6.40437 21.2158 6.67671 21.0933L12 18.6975L17.3233 21.0933C17.4327 21.1425 17.5492 21.1667 17.6652 21.1667C17.8381 21.1667 18.0098 21.1129 18.1546 21.0079C18.3963 20.8326 18.5258 20.5413 18.4939 20.2443L17.8683 14.4191L21.7855 10.0758C21.9851 9.85446 22.0513 9.5433 21.9591 9.2598Z" 
        fill="url(#starGradient)"/>
</svg>
