<svg xmlns="http://www.w3.org/2000/svg" width="20" height="20" viewBox="0 0 20 20">
    <g>
        <path fill="none" d="M0 0H20V20H0z" transform="translate(-22 -441) translate(22 441)"/>
        <g>
            <path fill="#fff" d="M7.66-12.834a4.8 4.8 0 0 0-.86-1.171 3.823 3.823 0 0 0-2.677-1 7.916 7.916 0 0 0-2.271.669 3.5 3.5 0 0 1-1.338.263 2.735 2.735 0 0 1-1.506-.454 4.454 4.454 0 0 0-2.079-.478C-5.915-15.009-7.8-12.165-7.8-9.2a10.65 10.65 0 0 0 3.343 7.814A3.272 3.272 0 0 0-2.33-.5a4.509 4.509 0 0 0 1.123-.241 6.428 6.428 0 0 1 1.745-.526 3.477 3.477 0 0 1 1.386.382 4.365 4.365 0 0 0 1.625.359A2.912 2.912 0 0 0 5.27-1a9.233 9.233 0 0 0 2.8-4.254c-1.6-.43-2.581-2.27-2.581-3.991-.004-1.343.856-3.183 2.171-3.589zM.036-14.89a3.494 3.494 0 0 0 2.7-1.267A4.511 4.511 0 0 0 3.812-19.1a4.556 4.556 0 0 0-2.677 1.434A4.33 4.33 0 0 0 .036-14.89z" transform="translate(-22 -441) translate(-335.054 235.065) translate(367.054 225.535)"/>
        </g>
    </g>
</svg>
