<svg className="hover:filter hover:brightness-150" xmlns="http://www.w3.org/2000/svg" width="36" height="36" viewBox="0 0 36 36" class="css-o3xn5l esx4t662">
	<defs>
		<style>
			.share-instagram_svg__cls-2{fill:rgba(255,255,255,.31)}
		</style>
	</defs>
	<g id="share-instagram_svg__share_instagram" transform="translate(2.381 2.381)">
		<rect id="share-instagram_svg__frame" width="36" height="36" rx="18" transform="translate(-2.381 -2.381)" fill="rgba(255,255,255,.13)">
		</rect>
		<g id="share-instagram_svg__\uADF8\uB8F9_5550" data-name="\uADF8\uB8F9 5550" transform="translate(4.678 4.679)">
			<path id="share-instagram_svg__패\uC2A4_4587" data-name="패\uC2A4 4587" class="share-instagram_svg__cls-2" d="M15.21 6.085c2.972 0 3.324.011 4.5.065a6.161 6.161 0 012.067.383 3.686 3.686 0 012.113 2.113 6.161 6.161 0 01.383 2.067c.054 1.174.065 1.526.065 4.5s-.011 3.324-.065 4.5a6.161 6.161 0 01-.383 2.067 3.686 3.686 0 01-2.113 2.113 6.161 6.161 0 01-2.067.383c-1.174.054-1.526.065-4.5.065s-3.324-.011-4.5-.065a6.161 6.161 0 01-2.067-.383A3.686 3.686 0 016.53 21.78a6.161 6.161 0 01-.383-2.067c-.054-1.174-.065-1.526-.065-4.5s.011-3.324.065-4.5a6.161 6.161 0 01.383-2.067 3.686 3.686 0 012.115-2.113 6.161 6.161 0 012.067-.383c1.174-.054 1.526-.065 4.5-.065m0-2.006c-3.023 0-3.4.013-4.589.067a8.17 8.17 0 00-2.7.517 5.692 5.692 0 00-3.26 3.256 8.17 8.17 0 00-.517 2.7c-.054 1.187-.067 1.566-.067 4.589s.013 3.4.067 4.589a8.17 8.17 0 00.517 2.7 5.692 5.692 0 003.255 3.255 8.17 8.17 0 002.7.517c1.187.054 1.566.067 4.589.067s3.4-.013 4.589-.067a8.17 8.17 0 002.7-.517 5.692 5.692 0 003.261-3.252 8.17 8.17 0 00.517-2.7c.054-1.187.067-1.566.067-4.589s-.013-3.4-.067-4.589a8.17 8.17 0 00-.517-2.7A5.692 5.692 0 0022.5 4.663a8.17 8.17 0 00-2.7-.517c-1.187-.054-1.566-.067-4.589-.067z" transform="translate(-4.079 -4.079)">
			</path>
			<path id="share-instagram_svg__패\uC2A4_4588" data-name="패\uC2A4 4588" class="share-instagram_svg__cls-2" d="M131.809 126.635a5.174 5.174 0 105.174 5.174 5.174 5.174 0 00-5.174-5.174zm0 8.533a3.359 3.359 0 113.359-3.359 3.359 3.359 0 01-3.359 3.359z" transform="translate(-120.678 -120.678)">
			</path>
			<circle id="share-instagram_svg__타\uC6D0_393" data-name="타\uC6D0 393" class="share-instagram_svg__cls-2" cx="1.469" cy="1.469" r="1.469" transform="translate(15.522 3.801)">
			</circle>
		</g>
	</g>
</svg>
