<svg xmlns="http://www.w3.org/2000/svg" width="32" height="32" viewBox="0 0 32 32" className="fill-white">
    <path fill="rgba(20,20,20,0)" d="M0 0h32v32H0z"></path>
    <path fill="white" d="M30 31.3H2a.8.8 0 01-.8-.8v-13a.8.8 0 01.8-.8.8.8 0 01.8.8v12.2h26.4V17.5a.8.8 0 01.8-.8.8.8 0 01.8.8v13a.8.8 0 01-.8.8zm-13.963-10a.8.8 0 01-.8-.8V3.414l-6.43 6.43a.8.8 0 01-1.131 0 .8.8 0 01-.234-.566.8.8 0 01.234-.566L15.454.934A.8.8 0 0116.019.7h.023a.8.8 0 01.3.06.8.8 0 01.247.161l.01.01 7.773 7.778a.8.8 0 01.234.565.8.8 0 01-.234.566.8.8 0 01-1.131 0l-6.409-6.412V20.5a.8.8 0 01-.794.8z" opacity="0.995"></path>
</svg>
